<svg width="25" height="24" viewBox="0 0 25 24" fill="none" xmlns="http://www.w3.org/2000/svg">
<path d="M5.49997 23.45C1.54997 21.9 0.199945 18.15 0.599945 10C0.849945 4.55001 1.34992 3.39999 4.19992 1.29999C5.29992 0.449994 6.44994 0.199982 10.5999 0.0999816C17.3999 -0.150018 19.7 0.249994 21.75 2.04999C24 4.04999 24.7 7.25002 24.4 13.95C24.2 18.45 24 19.15 22.75 20.8C22 21.8 20.5999 22.9 19.6999 23.3C17.7499 24.1 7.44997 24.2 5.49997 23.45ZM13.15 14.35C13.1 13.25 13.3 13.05 14.65 12.9C15.65 12.8 16.25 12.5 16.25 12C16.25 11.5 15.65 11.2 14.65 11.1C13.3 10.95 13.1 10.75 13.15 9.59998C13.2 8.69998 13 8.25001 12.5 8.25001C12 8.25001 11.75 8.75001 11.75 9.75001C11.75 11.05 11.55 11.2 10.25 11.25C8.09997 11.25 8.24999 12.7 10.4 12.9C11.9 13.05 12.05 13.2 11.8 14.2C11.5 15.45 11.8999 16.15 12.6999 15.85C12.9999 15.75 13.2 15.05 13.15 14.35Z" fill="#FF392B"/>
</svg>
