<svg width="374" height="200" viewBox="0 0 374 200" fill="none" xmlns="http://www.w3.org/2000/svg">
<g clip-path="url(#clip0_34_2)">
<rect width="374" height="200" rx="10" fill="#00C3F8"/>
<path d="M72 48L164.521 62.7407C200.988 68.5506 238.096 69.1386 274.729 64.4868L282.5 63.5L322 58V58C351.192 52.7871 378 75.2317 378 104.886V195.86C378 198.146 376.146 200 373.86 200H72V48Z" fill="#FFA800"/>
<path d="M0 4.62837C0 3.98595 0.751933 3.63771 1.24188 4.05323L13.5879 14.5238C31.1052 29.3802 52.765 38.4943 75.6342 40.6321V40.6321C124.787 45.2268 167.397 76.5582 186.438 122.106L219 200H10C4.47715 200 0 195.523 0 190V4.62837Z" fill="#3326AE"/>
<rect x="35" y="26" width="32" height="22" rx="2" fill="#D9D9D9" fill-opacity="0.8"/>
<path d="M318.114 31.3636L320.926 40.2045H321.034L323.852 31.3636H326.58L322.568 43H319.398L315.381 31.3636H318.114ZM330.44 31.3636V43H327.98V31.3636H330.44ZM338.777 34.7102C338.732 34.2519 338.536 33.8958 338.192 33.642C337.847 33.3883 337.379 33.2614 336.788 33.2614C336.387 33.2614 336.048 33.3182 335.771 33.4318C335.495 33.5417 335.283 33.6951 335.135 33.892C334.991 34.089 334.919 34.3125 334.919 34.5625C334.911 34.7708 334.955 34.9527 335.05 35.108C335.148 35.2633 335.283 35.3977 335.453 35.5114C335.624 35.6212 335.821 35.7178 336.044 35.8011C336.268 35.8807 336.506 35.9489 336.76 36.0057L337.805 36.2557C338.313 36.3693 338.779 36.5208 339.203 36.7102C339.627 36.8996 339.995 37.1326 340.305 37.4091C340.616 37.6856 340.857 38.0114 341.027 38.3864C341.201 38.7614 341.29 39.1913 341.294 39.6761C341.29 40.3883 341.108 41.0057 340.749 41.5284C340.393 42.0473 339.877 42.4508 339.203 42.7386C338.533 43.0227 337.724 43.1648 336.777 43.1648C335.838 43.1648 335.019 43.0208 334.322 42.733C333.629 42.4451 333.088 42.0189 332.697 41.4545C332.311 40.8864 332.108 40.1837 332.089 39.3466H334.47C334.497 39.7367 334.608 40.0625 334.805 40.3239C335.006 40.5814 335.273 40.7765 335.607 40.9091C335.944 41.0379 336.324 41.1023 336.749 41.1023C337.165 41.1023 337.527 41.0417 337.834 40.9205C338.144 40.7992 338.385 40.6307 338.555 40.4148C338.726 40.1989 338.811 39.9508 338.811 39.6705C338.811 39.4091 338.733 39.1894 338.578 39.0114C338.427 38.8333 338.203 38.6818 337.908 38.5568C337.616 38.4318 337.258 38.3182 336.834 38.2159L335.567 37.8977C334.586 37.6591 333.811 37.286 333.243 36.7784C332.675 36.2708 332.393 35.5871 332.396 34.7273C332.393 34.0227 332.58 33.4072 332.959 32.8807C333.341 32.3542 333.866 31.9432 334.533 31.6477C335.199 31.3523 335.957 31.2045 336.805 31.2045C337.669 31.2045 338.423 31.3523 339.067 31.6477C339.714 31.9432 340.218 32.3542 340.578 32.8807C340.938 33.4072 341.124 34.017 341.135 34.7102H338.777ZM344.689 43H342.053L346.07 31.3636H349.24L353.251 43H350.615L347.7 34.0227H347.609L344.689 43ZM344.524 38.4261H350.751V40.3466H344.524V38.4261Z" fill="white"/>
</g>
<defs>
<clipPath id="clip0_34_2">
<rect width="374" height="200" rx="10" fill="white"/>
</clipPath>
</defs>
</svg>
