<svg width="11" height="11" viewBox="0 0 11 11" fill="none" xmlns="http://www.w3.org/2000/svg">
<path d="M0.769856 9.83591C0.269856 8.98591 1.86988 6.63591 4.91988 3.73591C8.16988 0.635909 8.56981 0.435911 9.46981 1.53591C10.2698 2.53591 9.71988 3.48592 6.41988 6.68592C3.71988 9.33592 1.26986 10.6859 0.769856 9.83591ZM6.16988 5.78591C8.86988 2.98591 9.61986 1.83591 8.51986 1.83591C7.91986 1.83591 1.51986 8.18591 1.51986 8.83591C1.51986 9.78591 3.36988 8.58591 6.16988 5.78591Z" fill="#C4BDD5"/>
<path d="M5.26985 9.83591C5.41985 9.58591 6.5699 9.33591 7.8199 9.33591C9.0199 9.33591 10.0198 9.58591 10.0198 9.83591C10.0198 10.1359 8.8698 10.3359 7.4698 10.3359C5.9198 10.3359 5.06985 10.1359 5.26985 9.83591Z" fill="#C4BDD5"/>
</svg>
